<svg id="Layer_1" data-name="Layer 1" xmlns="http://www.w3.org/2000/svg" viewBox="0 0 399.65 398.7"><defs><style>.cls-1{fill:#fff;}</style></defs><title>Etsy</title><path class="cls-1" d="M356.59,1.27H43.07A43.2,43.2,0,0,0,0,43.85v.48Q0,200.62,0,356.91v.46A43.2,43.2,0,0,0,43.07,400H356.59a43.19,43.19,0,0,0,43.06-43.06V44.33A43.19,43.19,0,0,0,356.59,1.27ZM286.82,245.48c-.66,4.88-1.31,9.75-1.91,14.63q-1.85,15.18-3.64,30.37c-.68,5.75-1.3,11.51-1.91,17.26-.1.94-.46,1.25-1.39,1.22-11-.36-22-.73-33.06-1-7.21-.19-14.43-.38-21.64-.39-26.75-.05-53.5-.12-80.25,0-10.65.05-21.31.64-32,1-4.87.16-9.74.25-14.6.42-1.21,0-1.61-.38-1.44-1.9a42.79,42.79,0,0,0,0-9c-.15-1.4.27-1.84,1.37-2.05,6.13-1.17,12.31-2.11,18.39-3.6a25.69,25.69,0,0,0,3.91-1.32c4.56-2,6.66-5.57,6.79-10.42.16-6,.26-12,.4-18.05.5-22.25.55-44.49.54-66.74,0-11.85,0-23.71-.14-35.57q-.18-17-.57-34.05a59.05,59.05,0,0,0-.76-10c-1-5-4.06-7.72-8.75-9-5.63-1.55-11.44-2.21-17.12-3.51-1-.24-2-.35-3-.53s-1.15-.69-.93-1.89a22.81,22.81,0,0,0,0-9.2c-.35-1.59.18-1.8,1.07-1.77l18.19.55c5.41.17,10.83.37,16.25.53,32.46,1,64.93.29,97.4.41a288,288,0,0,0,32.43-1.69c4.87-.53,9.76-.94,14.64-1.5,1.08-.12,1.43.11,1.33,1.32q-1.44,17.16-2.35,34.37c-.44,8.39-.91,16.79-1.33,25.19-.06,1.07-.46,1.42-1.52,1.39-2.88,0-5.76-.09-8.63,0a2.16,2.16,0,0,1-2.19-1.64c-1.43-5.85-2.87-11.69-4.48-17.49s-3.6-11.59-7-16.71c-3.75-5.62-8.77-8.79-15.73-8.77-21.47,0-42.93,0-64.39,0-1.75,0-3.5,0-5.24.15-2.7.19-3.68,1.25-3.68,4q0,19.78,0,39.58h0q0,20,0,40c0,1.18.33,1.6,1.56,1.6,12,0,24.08,0,36.1-.7a71.93,71.93,0,0,0,13.22-1.61,10.49,10.49,0,0,0,7.18-6.13c1.62-3.94,2.3-8.13,3.47-12.19,1.07-3.74,1.81-7.56,2.65-11.36.28-1.26,1-1.37,2.7-1.1a24.14,24.14,0,0,0,7.54,0c2.54-.42,3.08-.1,3,1.44-.4,7.84-.75,15.69-1.12,23.54a296.7,296.7,0,0,0-.12,32.26c.35,5.81.42,11.63.34,17.44-.05,4,.54,4-1.91,4-3.22,0-6.43,0-9.65,0a1.44,1.44,0,0,1-1.68-1.34c-1.21-5.43-2.41-10.86-3.81-16.24a16.93,16.93,0,0,0-15.2-12.66c-6.27-.42-12.55-.6-18.83-.66L161.71,206c-1.85,0-1.84,0-1.84,1.82q0,33.3,0,66.6a22.8,22.8,0,0,0,1.28,8.12c1.93,5.14,5.89,7.95,11,9.34a36.24,36.24,0,0,0,9.69,1.12c15.85,0,31.71,0,47.57,0a48.16,48.16,0,0,0,14.42-1.94c7.49-2.33,12.89-7.24,16.87-13.84,4.26-7.07,6.79-15,10.43-22.34,1.54-3.12,2.85-6.34,4.11-9.58a1.82,1.82,0,0,1,2.23-1.4,37.1,37.1,0,0,0,7.45,0C286.67,243.71,287,244.19,286.82,245.48Z" transform="translate(0 -1.27)"/></svg>