<?xml version="1.0" encoding="utf-8"?>
<!-- Generator: Adobe Illustrator 14.0.0, SVG Export Plug-In . SVG Version: 6.00 Build 43363)  -->
<!DOCTYPE svg PUBLIC "-//W3C//DTD SVG 1.1//EN" "http://www.w3.org/Graphics/SVG/1.1/DTD/svg11.dtd">
<svg version="1.1" id="Layer_1" xmlns="http://www.w3.org/2000/svg" xmlns:xlink="http://www.w3.org/1999/xlink" x="0px" y="0px"
	 width="50px" height="50px" viewBox="0 0 50 50" enable-background="new 0 0 50 50" xml:space="preserve">
<path fill="#010101" d="M0,33.188V16.743c0.038-0.154,0.065-0.312,0.081-0.469c0.057-1.929,0.141-3.857,0.615-5.742
	C1.763,6.29,4.229,3.188,8.283,1.436c2.202-0.951,4.535-1.227,6.902-1.322c0.52-0.021,1.04-0.076,1.558-0.114h16.445
	c0.151,0.038,0.309,0.065,0.466,0.081c1.929,0.057,3.857,0.141,5.742,0.615c4.247,1.067,7.347,3.532,9.096,7.587
	c0.948,2.2,1.23,4.535,1.328,6.902c0.021,0.52,0.07,1.038,0.108,1.558v16.445c-0.033,0.151-0.065,0.309-0.076,0.466
	c-0.06,1.929-0.146,3.857-0.618,5.742c-1.072,4.247-3.532,7.347-7.584,9.096c-2.199,0.948-4.54,1.23-6.907,1.328
	c-0.515,0.021-1.035,0.07-1.555,0.107H16.743c-0.154-0.032-0.312-0.064-0.469-0.075c-1.929-0.06-3.857-0.146-5.742-0.618
	c-4.242-1.072-7.344-3.532-9.096-7.584c-0.951-2.21-1.227-4.54-1.322-6.907C0.092,34.222,0.038,33.702,0,33.188z M4.464,24.963H4.54
	c0,2.081-0.041,4.161,0.013,6.241c0.049,1.962,0.125,3.923,0.32,5.873c0.192,1.885,0.858,3.619,2.137,5.07
	c1.758,2.005,4.068,2.85,6.623,3.013c2.945,0.173,5.9,0.217,8.853,0.254c2.901,0.038,5.81,0.027,8.714-0.037
	c1.961-0.033,3.928-0.119,5.878-0.314c1.88-0.195,3.608-0.861,5.065-2.14c2.01-1.761,2.85-4.069,3.007-6.626
	c0.184-2.941,0.228-5.895,0.26-8.85c0.032-2.903,0.021-5.807-0.032-8.711c-0.044-1.961-0.131-3.928-0.325-5.875
	c-0.189-1.882-0.856-3.613-2.135-5.07c-1.755-2.007-4.068-2.85-6.62-3.007c-2.947-0.182-5.905-0.222-8.853-0.26
	c-2.906-0.035-5.813-0.035-8.716,0.041c-2.156,0.054-4.334,0.095-6.455,0.428c-3.63,0.566-6.089,2.668-7.067,6.271
	c-0.312,1.195-0.49,2.424-0.528,3.66C4.553,18.262,4.529,21.61,4.464,24.963z"/>
<path fill="#010101" d="M24.985,12.135c7.086,0.016,12.817,5.77,12.802,12.855c-0.017,7.086-5.77,12.818-12.856,12.801
	c-7.086-0.016-12.818-5.77-12.801-12.855c0-0.008,0-0.014,0-0.021C12.151,17.837,17.907,12.113,24.985,12.135z M24.975,16.659
	c-4.545,0-8.311,3.714-8.316,8.205c0,4.629,3.681,8.399,8.218,8.405c4.648,0,8.392-3.689,8.392-8.278
	C33.274,20.402,29.568,16.672,24.975,16.659z"/>
<path fill="#010101" d="M41.292,11.653c0,1.663-1.354,3.009-3.018,3.007c-1.663-0.005-3.007-1.354-3.007-3.021
	c0.006-1.66,1.354-3.006,3.012-3.004C39.948,8.638,41.292,9.987,41.292,11.653L41.292,11.653z"/>
</svg>
